Coordinates
version=1
nRows=37
nColumns=38
inDegrees=no

Units are S.I. units (second, meters, Newtons, ...)
If the header above contains a line with 'inDegrees', this indicates whether rotational values are in degrees (yes) or radians (no).

endheader
time	pelvis_tilt	pelvis_list	pelvis_rotation	pelvis_tx	pelvis_ty	pelvis_tz	hip_flexion_r	hip_adduction_r	hip_rotation_r	knee_angle_r	ankle_angle_r	subtalar_angle_r	mtp_angle_r	hip_flexion_l	hip_adduction_l	hip_rotation_l	knee_angle_l	ankle_angle_l	subtalar_angle_l	mtp_angle_l	lumbar_extension	lumbar_bending	lumbar_rotation	arm_flex_r	arm_add_r	arm_rot_r	elbow_flex_r	pro_sup_r	wrist_flex_r	wrist_dev_r	arm_flex_l	arm_add_l	arm_rot_l	elbow_flex_l	pro_sup_l	wrist_flex_l	wrist_dev_l
1.02	-0.311382	1.45865	-1.03796	0.7982	0.461025	1.01283	0.369174	-0.0314164	-0.0391311	0.30089	0.00390164	0	0	-0.158122	-0.184324	-0.283451	0.612014	-0.0067269	0	0	-0.357506	0.0703333	0.109466	-0.226226	-0.336068	0.320625	0.613017	0.801309	0	0	0.652282	-0.344814	1.51123	0.397776	0.863935	0	0
1.03	-0.343016	1.45743	-1.00143	0.797718	0.44892	1.0112	0.367759	-0.0289539	-0.0382782	0.297827	0.00151197	0	0	-0.167824	-0.191976	-0.277477	0.612334	-0.00612818	0	0	-0.357545	0.0783832	0.107421	-0.226305	-0.337722	0.321256	0.612122	0.799922	0	0	0.652002	-0.345495	1.51327	0.397644	0.865956	0	0
1.04	-0.376036	1.45581	-0.963325	0.797181	0.436654	1.00949	0.369592	-0.0257953	-0.0423739	0.309618	-0.000325167	0	0	-0.17774	-0.199791	-0.26955	0.612497	-0.00477575	0	0	-0.357012	0.0870868	0.104574	-0.226706	-0.339748	0.322219	0.611982	0.797412	0	0	0.650336	-0.347064	1.51588	0.398063	0.868319	0	0
1.05	-0.411031	1.45783	-0.923751	0.796503	0.424128	1.00729	0.384229	-0.0250787	-0.0542806	0.353012	0.00905779	0	0	-0.183528	-0.205571	-0.262613	0.615154	-0.00261148	0	0	-0.352349	0.0936297	0.101219	-0.227973	-0.341465	0.324458	0.611998	0.793516	0	0	0.646966	-0.350489	1.51798	0.400883	0.867132	0	0
1.06	-0.444801	1.46133	-0.885209	0.79574	0.411266	1.00482	0.400948	-0.0248453	-0.0658295	0.405669	0.0206007	0	0	-0.188006	-0.21044	-0.257159	0.619491	-0.000805782	0	0	-0.345376	0.098759	0.0967152	-0.229415	-0.341965	0.326936	0.610555	0.791391	0	0	0.641792	-0.355511	1.51968	0.405274	0.861718	0	0
1.07	-0.460765	1.46321	-0.86384	0.794958	0.398146	1.00248	0.412382	-0.0247823	-0.0764264	0.455766	0.0159392	0	0	-0.195572	-0.215025	-0.253242	0.623871	-0.000102097	0	0	-0.340439	0.103252	0.0918387	-0.231526	-0.342024	0.328992	0.609534	0.790839	0	0	0.636015	-0.361089	1.52325	0.409895	0.858397	0	0
1.08	-0.462644	1.46333	-0.856741	0.794032	0.384971	1.00045	0.420199	-0.0254109	-0.0864389	0.500518	-0.00255926	0	0	-0.204893	-0.219389	-0.249122	0.629555	-0.000838205	0	0	-0.338062	0.10743	0.0873902	-0.233263	-0.341804	0.331444	0.608298	0.791326	0	0	0.630001	-0.366835	1.52849	0.414069	0.857252	0	0
1.09	-0.460437	1.46139	-0.855051	0.792973	0.371953	0.999001	0.426192	-0.0263136	-0.0954693	0.538188	-0.0173789	0	0	-0.214659	-0.223851	-0.243069	0.637117	-0.00422107	0	0	-0.338691	0.112661	0.0846126	-0.234565	-0.34207	0.333235	0.607773	0.792199	0	0	0.623266	-0.371361	1.53185	0.416334	0.855303	0	0
1.1	-0.469042	1.45797	-0.844561	0.791797	0.359042	0.998166	0.43239	-0.0247452	-0.102711	0.573258	-0.0215029	0	0	-0.223211	-0.229199	-0.234348	0.646553	-0.0106538	0	0	-0.340861	0.119987	0.0838657	-0.235702	-0.343055	0.333193	0.608314	0.791841	0	0	0.614785	-0.374887	1.53182	0.417278	0.852086	0	0
1.11	-0.493208	1.45373	-0.820695	0.790437	0.346043	0.997772	0.439528	-0.0192768	-0.106628	0.609327	-0.0242453	0	0	-0.229905	-0.235639	-0.224214	0.657828	-0.0200136	0	0	-0.342839	0.129259	0.0851927	-0.237305	-0.34457	0.33174	0.609987	0.790627	0	0	0.604028	-0.378138	1.52862	0.418081	0.846392	0	0
1.12	-0.52666	1.44983	-0.789298	0.78888	0.332837	0.997612	0.447271	-0.0109971	-0.107515	0.644679	-0.0287664	0	0	-0.233922	-0.242269	-0.21302	0.672413	-0.0315572	0	0	-0.343232	0.139027	0.087649	-0.239044	-0.345706	0.330538	0.611126	0.789555	0	0	0.590888	-0.382072	1.52341	0.419865	0.837263	0	0
1.13	-0.553727	1.44612	-0.764947	0.787209	0.31943	0.997699	0.451731	-0.00222274	-0.1084	0.672983	-0.0332534	0	0	-0.236075	-0.248252	-0.20093	0.691251	-0.0445004	0	0	-0.342807	0.147917	0.0898509	-0.240071	-0.345225	0.329369	0.609625	0.787516	0	0	0.575558	-0.386307	1.51847	0.42108	0.830119	0	0
1.14	-0.566937	1.44298	-0.755052	0.78539	0.305841	0.997966	0.451415	0.00531433	-0.110901	0.69256	-0.0374075	0	0	-0.236564	-0.252717	-0.188519	0.714634	-0.0600152	0	0	-0.342109	0.154835	0.0915892	-0.24081	-0.343134	0.327827	0.606376	0.784277	0	0	0.558545	-0.391323	1.51433	0.42266	0.823593	0	0
1.15	-0.571221	1.44232	-0.755186	0.783363	0.292162	0.998203	0.448486	0.0108137	-0.116401	0.705675	-0.0399488	0	0	-0.232953	-0.254084	-0.17535	0.743228	-0.0776147	0	0	-0.339815	0.158412	0.0932673	-0.241238	-0.339799	0.32721	0.601799	0.781353	0	0	0.54063	-0.397763	1.51077	0.426426	0.812935	0	0
1.16	-0.571304	1.44438	-0.760376	0.781122	0.278451	0.998355	0.44465	0.0147347	-0.123511	0.716269	-0.0365028	0	0	-0.224172	-0.252442	-0.160685	0.776844	-0.0967928	0	0	-0.335341	0.1587	0.0950041	-0.241674	-0.335306	0.327122	0.596261	0.779457	0	0	0.522629	-0.405427	1.51095	0.432159	0.80057	0	0
1.17	-0.568384	1.44789	-0.768877	0.77882	0.264832	0.998567	0.439816	0.017706	-0.129893	0.725225	-0.027354	0	0	-0.210729	-0.248647	-0.14357	0.814692	-0.118315	0	0	-0.329927	0.157298	0.0968208	-0.242554	-0.330467	0.326954	0.591162	0.778739	0	0	0.505056	-0.413366	1.5138	0.43942	0.783903	0	0
1.18	-0.564676	1.45114	-0.77821	0.776627	0.251512	0.998984	0.432902	0.0207521	-0.134784	0.730916	-0.016394	0	0	-0.193722	-0.243871	-0.12449	0.856057	-0.1411	0	0	-0.325387	0.156295	0.0995551	-0.244539	-0.326463	0.325192	0.588465	0.77813	0	0	0.488161	-0.419821	1.51784	0.446034	0.77067	0	0
1.19	-0.565688	1.45337	-0.782856	0.774635	0.238534	0.999629	0.42352	0.0247913	-0.13882	0.732582	-0.00570608	0	0	-0.173936	-0.238985	-0.104598	0.899593	-0.163828	0	0	-0.321853	0.156988	0.102942	-0.247173	-0.323901	0.322396	0.587904	0.777504	0	0	0.47174	-0.424804	1.52304	0.4522	0.761373	0	0
1.2	-0.578132	1.4547	-0.776249	0.772788	0.22583	1.00038	0.412976	0.0306165	-0.141388	0.732249	0.00441701	0	0	-0.15161	-0.234719	-0.085004	0.943868	-0.183048	0	0	-0.318585	0.15968	0.106957	-0.250054	-0.322745	0.319511	0.588621	0.777425	0	0	0.45559	-0.428617	1.52812	0.458429	0.7547	0	0
1.21	-0.600416	1.45597	-0.760032	0.771128	0.213422	1.00109	0.403405	0.0370526	-0.14247	0.732358	0.0154163	0	0	-0.127121	-0.230552	-0.066349	0.987602	-0.193175	0	0	-0.315008	0.16342	0.111532	-0.253471	-0.322838	0.316287	0.590708	0.778082	0	0	0.440233	-0.431719	1.53435	0.465502	0.748674	0	0
1.22	-0.624286	1.45654	-0.742804	0.769577	0.20125	1.00177	0.393489	0.0442452	-0.141703	0.732269	0.025101	0	0	-0.10291	-0.227221	-0.0512107	1.02983	-0.18931	0	0	-0.312159	0.167607	0.117692	-0.25797	-0.323978	0.312285	0.594454	0.778566	0	0	0.425995	-0.433815	1.54178	0.472624	0.747336	0	0
1.23	-0.638673	1.45661	-0.735609	0.76812	0.189223	1.00256	0.381915	0.051208	-0.139721	0.731552	0.0354591	0	0	-0.0801718	-0.223747	-0.0409212	1.07083	-0.174072	0	0	-0.310653	0.17106	0.125187	-0.26313	-0.325499	0.307139	0.598919	0.778975	0	0	0.413056	-0.434961	1.55172	0.47932	0.749779	0	0
1.24	-0.632119	1.45587	-0.749949	0.766753	0.177249	1.0037	0.366361	0.0572508	-0.136956	0.727811	0.0443186	0	0	-0.0599237	-0.21986	-0.037572	1.11073	-0.155988	0	0	-0.311636	0.172817	0.133653	-0.267938	-0.326979	0.30194	0.602745	0.779076	0	0	0.40089	-0.435328	1.56222	0.485093	0.757156	0	0
1.25	-0.604306	1.45462	-0.786295	0.765357	0.165323	1.00522	0.347221	0.0623337	-0.132668	0.721423	0.0539206	0	0	-0.04159	-0.21556	-0.0409601	1.14932	-0.13687	0	0	-0.315475	0.17246	0.142936	-0.27248	-0.328233	0.295639	0.606712	0.779448	0	0	0.389665	-0.435408	1.5708	0.490503	0.763046	0	0
1.26	-0.553605	1.45214	-0.846119	0.763835	0.15352	1.00721	0.323669	0.066858	-0.126241	0.711604	0.0645568	0	0	-0.0259338	-0.210771	-0.0487638	1.18448	-0.118949	0	0	-0.323389	0.170069	0.152034	-0.275959	-0.329127	0.287826	0.6112	0.780696	0	0	0.378056	-0.436114	1.5708	0.496059	0.769021	0	0
1.27	-0.494933	1.44922	-0.913644	0.76234	0.141883	1.00944	0.298151	0.0702534	-0.120071	0.699364	0.0726421	0	0	-0.0107703	-0.205048	-0.0567129	1.21486	-0.106528	0	0	-0.332426	0.166258	0.159962	-0.277707	-0.329703	0.281223	0.614114	0.78224	0	0	0.366398	-0.436913	1.5708	0.500975	0.773202	0	0
1.28	-0.440102	1.44651	-0.976737	0.76097	0.130485	1.01171	0.272495	0.0726766	-0.114942	0.685217	0.0785422	0	0	0.00550181	-0.198612	-0.0628818	1.24034	-0.0961347	0	0	-0.340835	0.162035	0.167019	-0.27842	-0.330577	0.276417	0.615826	0.783152	0	0	0.354949	-0.437059	1.5708	0.504818	0.774284	0	0
1.29	-0.393063	1.44317	-1.03137	0.759723	0.119319	1.01398	0.245311	0.0757081	-0.108704	0.66754	0.0832059	0	0	0.0220609	-0.192815	-0.0677973	1.26019	-0.0861104	0	0	-0.349198	0.158569	0.173482	-0.278793	-0.332034	0.272341	0.617549	0.783825	0	0	0.343909	-0.436781	1.5708	0.508392	0.772803	0	0
1.3	-0.360626	1.44084	-1.07169	0.758538	0.108231	1.01608	0.219733	0.0791857	-0.101527	0.649435	0.0864777	0	0	0.0403319	-0.187962	-0.0731606	1.27441	-0.078385	0	0	-0.355265	0.155804	0.179771	-0.27885	-0.333972	0.269591	0.61848	0.784381	0	0	0.332349	-0.435951	1.5708	0.511253	0.769617	0	0
1.31	-0.346416	1.43934	-1.09376	0.757456	0.0972794	1.01787	0.195531	0.0839048	-0.0938313	0.629653	0.0898883	0	0	0.0608549	-0.184921	-0.078255	1.2848	-0.0714613	0	0	-0.359024	0.154797	0.186201	-0.279609	-0.336814	0.267454	0.620221	0.784704	0	0	0.320743	-0.434709	1.5708	0.514366	0.765154	0	0
1.32	-0.334482	1.43729	-1.11369	0.756494	0.0864673	1.01966	0.169796	0.0886162	-0.0862355	0.606913	0.0930866	0	0	0.0804451	-0.181909	-0.082911	1.29024	-0.0650868	0	0	-0.363198	0.154375	0.192976	-0.280901	-0.340427	0.265514	0.623031	0.784965	0	0	0.309824	-0.432931	1.5708	0.517581	0.759647	0	0
1.33	-0.324838	1.43529	-1.13073	0.755591	0.075767	1.0214	0.143492	0.0932308	-0.0785514	0.58267	0.0945834	0	0	0.0999886	-0.179304	-0.0879983	1.29163	-0.058545	0	0	-0.367271	0.154116	0.199483	-0.282347	-0.344125	0.263735	0.626192	0.785161	0	0	0.299786	-0.431054	1.5708	0.520972	0.755374	0	0
1.34	-0.315846	1.43251	-1.14682	0.754718	0.0651264	1.02317	0.115022	0.0979406	-0.0709207	0.554165	0.0942092	0	0	0.118206	-0.177783	-0.0951553	1.28919	-0.0507512	0	0	-0.372064	0.154117	0.2057	-0.283729	-0.347874	0.261845	0.62961	0.785366	0	0	0.290399	-0.429052	1.5708	0.524326	0.752357	0	0
1.35	-0.307709	1.42932	-1.16184	0.753924	0.0545302	1.0249	0.0855915	0.102397	-0.0637556	0.523488	0.0910112	0	0	0.135437	-0.176879	-0.104387	1.28363	-0.0427387	0	0	-0.37739	0.154245	0.212003	-0.285607	-0.3518	0.259442	0.633947	0.785545	0	0	0.281719	-0.426711	1.5708	0.527495	0.751551	0	0
1.36	-0.299375	1.42576	-1.17687	0.753202	0.0439695	1.02659	0.0552935	0.106615	-0.0562174	0.49167	0.0838591	0	0	0.151304	-0.1763	-0.115911	1.27473	-0.0349054	0	0	-0.383293	0.15428	0.218376	-0.287787	-0.355692	0.256477	0.638858	0.785692	0	0	0.27384	-0.424011	1.5708	0.530413	0.751908	0	0
1.37	-0.288831	1.42128	-1.19414	0.75251	0.0334349	1.02828	0.0233559	0.110436	-0.0485072	0.458189	0.0746141	0	0	0.164815	-0.176166	-0.129873	1.26255	-0.0280234	0	0	-0.390371	0.153871	0.224839	-0.290226	-0.359473	0.252952	0.644456	0.785942	0	0	0.266772	-0.421491	1.5708	0.533704	0.753084	0	0
1.38	-0.274332	1.41482	-1.21548	0.751814	0.0229444	1.03004	-0.0125023	0.113821	-0.0402263	0.420378	0.0647729	0	0	0.174683	-0.176783	-0.147004	1.24692	-0.0225808	0	0	-0.400044	0.15303	0.231919	-0.293393	-0.363383	0.248379	0.65171	0.786214	0	0	0.260923	-0.419234	1.5708	0.537618	0.755156	0	0
